<svg xmlns="http://www.w3.org/2000/svg" viewBox="0 0 64 64">
	<defs>
		<linearGradient id="g" x1="0" y1="0" x2="1" y2="1">
			<stop offset="0%" stop-color="#2563eb"/>
			<stop offset="100%" stop-color="#7c3aed"/>
		</linearGradient>
	</defs>
	<rect width="64" height="64" rx="12" fill="url(#g)"/>
	<path d="M32 14c-6.6 0-12 5.4-12 12 0 9 12 20 12 20s12-11 12-20c0-6.6-5.4-12-12-12zm0 17a5 5 0 1 1 0-10 5 5 0 0 1 0 10z" fill="#fff" opacity="0.9"/>
	<path d="M28 31h-4v-4h-4v-4h4v-4h4v4h4v4h-4z" fill="#fff"/>
</svg>
